<svg xmlns="http://www.w3.org/2000/svg" version="1.1" xmlns:xlink="http://www.w3.org/1999/xlink" xmlns:svgjs="http://svgjs.dev/svgjs" width="1000" height="1000" viewBox="0 0 1000 1000"><rect width="1000" height="1000" fill="#ffffff"></rect><g transform="matrix(0.7,0,0,0.7,149.57575757575756,282.1265587044535)"><svg viewBox="0 0 396 247" data-background-color="#35185a" preserveAspectRatio="xMidYMid meet" height="623" width="1000" xmlns="http://www.w3.org/2000/svg" xmlns:xlink="http://www.w3.org/1999/xlink"><g id="tight-bounds" transform="matrix(1,0,0,1,0.2400000000000091,-0.09999999999999432)"><svg viewBox="0 0 395.52 247.2" height="247.2" width="395.52"><g><svg></svg></g><g><svg viewBox="0 0 395.52 247.2" height="247.2" width="395.52"><mask id="e347209c-17b7-4c84-9e1c-db7f564ee08a"><rect width="395.52" height="247.2" fill="white"></rect><g transform="matrix(1,0,0,1,0,98.4556042835288)" id="clone"><svg viewBox="0 0 395.52 50.28879143294239" height="50.28879143294239" width="395.52"><g><svg viewBox="0 0 395.52 50.28879143294239" height="50.28879143294239" width="395.52"><g><svg viewBox="0 0 395.52 50.28879143294239" height="50.28879143294239" width="395.52"><g><svg viewBox="0 0 395.52 50.28879143294239" height="50.28879143294239" width="395.52"><g id="SvgjsG1134"><svg viewBox="0 0 395.52 50.28879143294239" height="50.28879143294239" width="395.52" id="SvgjsSvg1133"><g><svg viewBox="0 0 395.52 50.28879143294239" height="50.28879143294239" width="395.52"><g transform="matrix(1,0,0,1,0,0)"><svg width="395.52" viewBox="1.6999998092651367 -35.04999923706055 295.1199951171875 38.39999771118164" height="50.28879143294239" data-palette-color="#a437db"><path d="M29.5-32.05L29.3-10 29.4 0 25.45 0 25.65-9.65 25.6-14.45 16.7-14.5 8.55-14.45 8.5-10 8.65 0 4.7 0 4.85-9.65 4.7-32.05 8.7-32.05 8.55-17.85 17.05-17.8 25.6-17.85 25.45-32.05 29.5-32.05ZM47.25-3L53.9-3.2 54.2-2.9 53.85 0 38.7 0 38.85-7.5 38.7-24.9 53.95-24.9 54.2-24.6 53.9-21.7 47.6-21.9 42.4-21.85 42.35-14.3 47.3-14.25 51.65-14.4 51.9-14.05 51.6-11.1 47-11.25 42.35-11.2 42.3-7.8 42.35-3.05 47.25-3ZM71.1-24.9L79.85 0 76.1 0 75.5-2.7 74.2-6.4 68.25-6.45 62.95-6.4 61.6-2.9 60.9 0 57.2 0 66.8-24.9 71.1-24.9ZM68.55-9.4L73.15-9.45 69-21.25 68.7-21.25 64.15-9.45 68.55-9.4ZM99.24-3.15L99.44-2.8 99.19 0 85.94 0 86.09-7.5 85.94-24.9 89.69-24.9 89.54-7.8 89.64-3.15 99.24-3.15ZM117.99-24.9L118.19-24.6 117.94-21.45 113.29-21.8 110.79-21.8 110.64-7.8 110.79 0 107.04 0 107.19-7.5 107.09-21.8 104.59-21.8 99.84-21.45 99.54-21.8 99.84-24.9 117.99-24.9ZM145.14-24.9L144.99-7.8 145.09 0 141.39 0 141.54-7.5 141.49-10.9 127.94-10.85 127.89-7.8 127.99 0 124.29 0 124.44-7.5 124.29-24.9 128.04-24.9 127.94-14.2 134.69-14.15 141.49-14.2 141.39-24.9 145.14-24.9ZM170.88-3L177.53-3.2 177.83-2.9 177.48 0 162.33 0 162.48-7.5 162.33-24.9 177.58-24.9 177.83-24.6 177.53-21.7 171.23-21.9 166.03-21.85 165.98-14.3 170.93-14.25 175.28-14.4 175.53-14.05 175.23-11.1 170.63-11.25 165.98-11.2 165.93-7.8 165.98-3.05 170.88-3ZM203.18-24.9L194.83-13 203.78 0 199.28 0 198.13-2.15 192.33-10.1 186.28-1.95 185.18 0 181.23 0 190.13-12.5 181.48-24.9 186.13-24.9 187.18-22.8 192.63-15.35 198.08-22.85 199.13-24.9 203.18-24.9ZM218.58-24.95Q222.53-24.95 224.65-23.05 226.78-21.15 226.78-17.55L226.78-17.55Q226.78-13.35 224.1-10.98 221.43-8.6 216.73-8.6L216.73-8.6 213.68-8.6 213.68-7.8 213.78 0 210.08 0 210.23-7.5 210.08-24.9 218.58-24.95ZM217.93-11.5Q222.88-12.35 222.88-17.25L222.88-17.25Q222.88-19.6 221.55-20.75 220.23-21.9 217.58-22L217.58-22 213.78-21.95 213.73-11.6 217.93-11.5ZM241.93-3L248.58-3.2 248.88-2.9 248.53 0 233.38 0 233.53-7.5 233.38-24.9 248.63-24.9 248.88-24.6 248.58-21.7 242.28-21.9 237.08-21.85 237.03-14.3 241.98-14.25 246.33-14.4 246.58-14.05 246.28-11.1 241.68-11.25 237.03-11.2 236.98-7.8 237.03-3.05 241.93-3ZM266.57-10.05Q269.62-5.4 273.32-0.9L273.32-0.9 273.27-0.4Q271.17 0.25 269.82 0.35L269.82 0.35 269.17-0.05Q265.37-5.8 263.42-9.1L263.42-9.1 258.72-9.05 258.72-7.8 258.82 0 255.12 0 255.27-7.5 255.12-24.9 263.62-24.95Q267.57-24.95 269.7-23.1 271.82-21.25 271.82-17.75L271.82-17.75Q271.82-15.2 270.45-13.2 269.07-11.2 266.57-10.05L266.57-10.05ZM258.82-21.9L258.77-12.15 263.47-12Q267.92-13.25 267.92-17.45L267.92-17.45Q267.92-19.65 266.62-20.75 265.32-21.85 262.67-21.95L262.67-21.95 258.82-21.9ZM293.62-24.9L293.82-24.6 293.57-21.45 288.92-21.8 286.42-21.8 286.27-7.8 286.42 0 282.67 0 282.82-7.5 282.72-21.8 280.22-21.8 275.47-21.45 275.17-21.8 275.47-24.9 293.62-24.9Z" opacity="1" transform="matrix(1,0,0,1,0,0)" fill="black" class="wordmark-text-0" id="SvgjsPath1132" stroke-width="5" stroke="black" stroke-linejoin="round"></path></svg></g></svg></g></svg></g></svg></g></svg></g></svg></g></svg></g></mask><g mask="url(#e347209c-17b7-4c84-9e1c-db7f564ee08a)"><g><path xmlns="http://www.w3.org/2000/svg" d="M187.069 3.368l-1.501 165.436 0.75 75.028h-29.636l1.501-72.402-0.375-36.013-66.775-0.375-61.147 0.375-0.375 33.387 1.125 75.028h-29.636l1.125-72.402-1.125-168.062h30.011l-1.125 106.539 63.773 0.376 64.149-0.376-1.126-106.539zM392.644 217.572l1.876 3.001-2.251 23.259h-135.05l1.876-72.402-1.876-168.062h135.425l1.501 3.001-2.251 23.259-56.646-1.126-47.642 0.751-0.751 78.779 45.017 0.75 39.765-1.125 2.25 2.626-2.626 23.258-42.015-0.75-42.766 0.375-0.375 35.638 1.125 49.894 47.643 0.375z" fill="#000000" fill-rule="nonzero" stroke="none" stroke-width="1" stroke-linecap="butt" stroke-linejoin="miter" stroke-miterlimit="10" stroke-dasharray="" stroke-dashoffset="0" font-family="none" font-weight="none" font-size="none" text-anchor="none" style="mix-blend-mode: normal" data-fill-palette-color="tertiary"></path></g></g><g transform="matrix(1,0,0,1,0,98.4556042835288)"><svg viewBox="0 0 395.52 50.28879143294239" height="50.28879143294239" width="395.52"><g><svg viewBox="0 0 395.52 50.28879143294239" height="50.28879143294239" width="395.52"><g><svg viewBox="0 0 395.52 50.28879143294239" height="50.28879143294239" width="395.52"><g><svg viewBox="0 0 395.52 50.28879143294239" height="50.28879143294239" width="395.52"><g id="textblocktransform"><svg viewBox="0 0 395.52 50.28879143294239" height="50.28879143294239" width="395.52" id="textblock"><g><svg viewBox="0 0 395.52 50.28879143294239" height="50.28879143294239" width="395.52"><g transform="matrix(1,0,0,1,0,0)"><svg width="395.52" viewBox="1.6999998092651367 -35.04999923706055 295.1199951171875 38.39999771118164" height="50.28879143294239" data-palette-color="#a437db"><path d="M29.5-32.05L29.3-10 29.4 0 25.45 0 25.65-9.65 25.6-14.45 16.7-14.5 8.55-14.45 8.5-10 8.65 0 4.7 0 4.85-9.65 4.7-32.05 8.7-32.05 8.55-17.85 17.05-17.8 25.6-17.85 25.45-32.05 29.5-32.05ZM47.25-3L53.9-3.2 54.2-2.9 53.85 0 38.7 0 38.85-7.5 38.7-24.9 53.95-24.9 54.2-24.6 53.9-21.7 47.6-21.9 42.4-21.85 42.35-14.3 47.3-14.25 51.65-14.4 51.9-14.05 51.6-11.1 47-11.25 42.35-11.2 42.3-7.8 42.35-3.05 47.25-3ZM71.1-24.9L79.85 0 76.1 0 75.5-2.7 74.2-6.4 68.25-6.45 62.95-6.4 61.6-2.9 60.9 0 57.2 0 66.8-24.9 71.1-24.9ZM68.55-9.4L73.15-9.45 69-21.25 68.7-21.25 64.15-9.45 68.55-9.4ZM99.24-3.15L99.44-2.8 99.19 0 85.94 0 86.09-7.5 85.94-24.9 89.69-24.9 89.54-7.8 89.64-3.15 99.24-3.15ZM117.99-24.9L118.19-24.6 117.94-21.45 113.29-21.8 110.79-21.8 110.64-7.8 110.79 0 107.04 0 107.19-7.5 107.09-21.8 104.59-21.8 99.84-21.45 99.54-21.8 99.84-24.9 117.99-24.9ZM145.14-24.9L144.99-7.8 145.09 0 141.39 0 141.54-7.5 141.49-10.9 127.94-10.85 127.89-7.8 127.99 0 124.29 0 124.44-7.5 124.29-24.9 128.04-24.9 127.94-14.2 134.69-14.15 141.49-14.2 141.39-24.9 145.14-24.9ZM170.88-3L177.53-3.2 177.83-2.9 177.48 0 162.33 0 162.48-7.5 162.33-24.9 177.58-24.9 177.83-24.6 177.53-21.7 171.23-21.9 166.03-21.85 165.98-14.3 170.93-14.25 175.28-14.4 175.53-14.05 175.23-11.1 170.63-11.25 165.98-11.2 165.93-7.8 165.98-3.05 170.88-3ZM203.18-24.9L194.83-13 203.78 0 199.28 0 198.13-2.15 192.33-10.1 186.28-1.95 185.18 0 181.23 0 190.13-12.5 181.48-24.9 186.13-24.9 187.18-22.8 192.63-15.35 198.08-22.85 199.13-24.9 203.18-24.9ZM218.58-24.95Q222.53-24.95 224.65-23.05 226.78-21.15 226.78-17.55L226.78-17.55Q226.78-13.35 224.1-10.98 221.43-8.6 216.73-8.6L216.73-8.6 213.68-8.6 213.68-7.8 213.78 0 210.08 0 210.23-7.5 210.08-24.9 218.58-24.95ZM217.93-11.5Q222.88-12.35 222.88-17.25L222.88-17.25Q222.88-19.6 221.55-20.75 220.23-21.9 217.58-22L217.58-22 213.78-21.95 213.73-11.6 217.93-11.5ZM241.93-3L248.58-3.2 248.88-2.9 248.53 0 233.38 0 233.53-7.5 233.38-24.9 248.63-24.9 248.88-24.6 248.58-21.7 242.28-21.9 237.08-21.85 237.03-14.3 241.98-14.25 246.33-14.4 246.58-14.05 246.28-11.1 241.68-11.25 237.03-11.2 236.98-7.8 237.03-3.05 241.93-3ZM266.57-10.05Q269.62-5.4 273.32-0.9L273.32-0.9 273.27-0.4Q271.17 0.25 269.82 0.35L269.82 0.35 269.17-0.05Q265.37-5.8 263.42-9.1L263.42-9.1 258.72-9.05 258.72-7.8 258.82 0 255.12 0 255.27-7.5 255.12-24.9 263.62-24.95Q267.57-24.95 269.7-23.1 271.82-21.25 271.82-17.75L271.82-17.75Q271.82-15.2 270.45-13.2 269.07-11.2 266.57-10.05L266.57-10.05ZM258.82-21.9L258.77-12.15 263.47-12Q267.92-13.25 267.92-17.45L267.92-17.45Q267.92-19.65 266.62-20.75 265.32-21.85 262.67-21.95L262.67-21.95 258.82-21.9ZM293.62-24.9L293.82-24.6 293.57-21.45 288.92-21.8 286.42-21.8 286.27-7.8 286.42 0 282.67 0 282.82-7.5 282.72-21.8 280.22-21.8 275.47-21.45 275.17-21.8 275.47-24.9 293.62-24.9Z" opacity="1" transform="matrix(1,0,0,1,0,0)" fill="#000000" class="wordmark-text-0" data-fill-palette-color="primary" id="text-0"></path></svg></g></svg></g></svg></g></svg></g></svg></g></svg></g></svg></g></svg></g><defs></defs></svg><rect width="395.52" height="247.2" fill="none" stroke="none" visibility="hidden"></rect></g></svg></g></svg>